HIERARCHY
ROOT Hips
{
  OFFSET -190.384 73.7931 509.029
  CHANNELS 6 Xposition Yposition Zposition Zrotation Xrotation Yrotation
  JOINT Spine
  {
    OFFSET 0 8 0
    CHANNELS 6 Xposition Yposition Zposition Zrotation Xrotation Yrotation
    JOINT Spine1
    {
      OFFSET 0 8 0
      CHANNELS 6 Xposition Yposition Zposition Zrotation Xrotation Yrotation
      JOINT Spine2
      {
        OFFSET 0 8 0
        CHANNELS 6 Xposition Yposition Zposition Zrotation Xrotation Yrotation
        JOINT Spine3
        {
          OFFSET 0 8 0
          CHANNELS 6 Xposition Yposition Zposition Zrotation Xrotation Yrotation
          JOINT Neck
          {
            OFFSET 1.03713e-05 17 -1.54039e-05
            CHANNELS 6 Xposition Yposition Zposition Zrotation Xrotation Yrotation
            JOINT Head
            {
              OFFSET 0 10.8 1.59001e-05
              CHANNELS 6 Xposition Yposition Zposition Zrotation Xrotation Yrotation
              End Site
              {
                OFFSET 0 20.25 0
              }
            }
          }
          JOINT LeftShoulder
          {
            OFFSET 4.99999 17 0
            CHANNELS 6 Xposition Yposition Zposition Zrotation Xrotation Yrotation
            JOINT LeftShoulder2
            {
              OFFSET 6.45 0 0
              CHANNELS 6 Xposition Yposition Zposition Zrotation Xrotation Yrotation
              JOINT LeftArm
              {
                OFFSET 6.45001 0 1.13687e-05
                CHANNELS 6 Xposition Yposition Zposition Zrotation Xrotation Yrotation
                JOINT LeftForeArm
                {
                  OFFSET 0 -32.4 -2
                  CHANNELS 6 Xposition Yposition Zposition Zrotation Xrotation Yrotation
                  JOINT LeftHand
                  {
                    OFFSET -2.15211e-05 -25.65 1.99997
                    CHANNELS 6 Xposition Yposition Zposition Zrotation Xrotation Yrotation
                    JOINT LeftHandThumb1
                    {
                      OFFSET -0.499992 -1.50001 2.65001
                      CHANNELS 6 Xposition Yposition Zposition Zrotation Xrotation Yrotation
                      JOINT LeftHandThumb2
                      {
                        OFFSET 0 -3.80001 3.69998
                        CHANNELS 6 Xposition Yposition Zposition Zrotation Xrotation Yrotation
                        JOINT LeftHandThumb3
                        {
                          OFFSET 0 -2.99998 2.70001
                          CHANNELS 6 Xposition Yposition Zposition Zrotation Xrotation Yrotation
                          End Site
                          {
                            OFFSET 0 -2.30002 1.79999
                          }
                        }
                      }
                    }
                    JOINT LeftHandIndex
                    {
                      OFFSET 1.07731e-05 -1.9 1.6
                      CHANNELS 6 Xposition Yposition Zposition Zrotation Xrotation Yrotation
                      JOINT LeftHandIndex1
                      {
                        OFFSET -1.89232e-05 -8.30002 1.9
                        CHANNELS 6 Xposition Yposition Zposition Zrotation Xrotation Yrotation
                        JOINT LeftHandIndex2
                        {
                          OFFSET 3.7904e-05 -4.49999 0
                          CHANNELS 6 Xposition Yposition Zposition Zrotation Xrotation Yrotation
                          JOINT LeftHandIndex3
                          {
                            OFFSET 0 -3.4 0
                            CHANNELS 6 Xposition Yposition Zposition Zrotation Xrotation Yrotation
                            End Site
                            {
                              OFFSET 1.01851e-05 -2.60002 -1.4381e-05
                            }
                          }
                        }
                      }
                    }
                    JOINT LeftHandMiddle
                    {
                      OFFSET -0.249997 -2.2 0.399999
                      CHANNELS 6 Xposition Yposition Zposition Zrotation Xrotation Yrotation
                      JOINT LeftHandMiddle1
                      {
                        OFFSET 0 -8.30002 0.999997
                        CHANNELS 6 Xposition Yposition Zposition Zrotation Xrotation Yrotation
                        JOINT LeftHandMiddle2
                        {
                          OFFSET 0 -4.65001 0
                          CHANNELS 6 Xposition Yposition Zposition Zrotation Xrotation Yrotation
                          JOINT LeftHandMiddle3
                          {
                            OFFSET 0 -3.29998 0
                            CHANNELS 6 Xposition Yposition Zposition Zrotation Xrotation Yrotation
                            End Site
                            {
                              OFFSET -4.76544e-05 -2.7 0
                            }
                          }
                        }
                      }
                    }
                    JOINT LeftHandRing
                    {
                      OFFSET -0.499992 -2.15002 -0.799996
                      CHANNELS 6 Xposition Yposition Zposition Zrotation Xrotation Yrotation
                      JOINT LeftHandRing1
                      {
                        OFFSET -1.38721e-05 -7.74999 -0.200005
                        CHANNELS 6 Xposition Yposition Zposition Zrotation Xrotation Yrotation
                        JOINT LeftHandRing2
                        {
                          OFFSET 1.95605e-05 -3.8 0
                          CHANNELS 6 Xposition Yposition Zposition Zrotation Xrotation Yrotation
                          JOINT LeftHandRing3
                          {
                            OFFSET -1.93958e-05 -3.4 1.74981e-05
                            CHANNELS 6 Xposition Yposition Zposition Zrotation Xrotation Yrotation
                            End Site
                            {
                              OFFSET 1.22713e-05 -2.6 0
                            }
                          }
                        }
                      }
                    }
                    JOINT LeftHandPinky
                    {
                      OFFSET -0.74999 -1.75003 -1.85
                      CHANNELS 6 Xposition Yposition Zposition Zrotation Xrotation Yrotation
                      JOINT LeftHandPinky1
                      {
                        OFFSET -1.86846e-05 -7.14999 -0.999996
                        CHANNELS 6 Xposition Yposition Zposition Zrotation Xrotation Yrotation
                        JOINT LeftHandPinky2
                        {
                          OFFSET 0 -2.99999 0
                          CHANNELS 6 Xposition Yposition Zposition Zrotation Xrotation Yrotation
                          JOINT LeftHandPinky3
                          {
                            OFFSET 0 -2.34999 0
                            CHANNELS 6 Xposition Yposition Zposition Zrotation Xrotation Yrotation
                            End Site
                            {
                              OFFSET 4.2343e-05 -2.10002 1.25181e-05
                            }
                          }
                        }
                      }
                    }
                  }
                }
              }
            }
          }
          JOINT RightShoulder
          {
            OFFSET -5 17 0
            CHANNELS 6 Xposition Yposition Zposition Zrotation Xrotation Yrotation
            JOINT RightShoulder2
            {
              OFFSET -6.45 0 0
              CHANNELS 6 Xposition Yposition Zposition Zrotation Xrotation Yrotation
              JOINT RightArm
              {
                OFFSET -6.45 0 -1.01061e-05
                CHANNELS 6 Xposition Yposition Zposition Zrotation Xrotation Yrotation
                JOINT RightForeArm
                {
                  OFFSET 2.58642e-05 -32.4 -2.00002
                  CHANNELS 6 Xposition Yposition Zposition Zrotation Xrotation Yrotation
                  JOINT RightHand
                  {
                    OFFSET 0 -25.65 2.00001
                    CHANNELS 6 Xposition Yposition Zposition Zrotation Xrotation Yrotation
                    JOINT RightHandThumb1
                    {
                      OFFSET 0.49999 -1.50001 2.65
                      CHANNELS 6 Xposition Yposition Zposition Zrotation Xrotation Yrotation
                      JOINT RightHandThumb2
                      {
                        OFFSET 2.08497e-05 -3.79998 3.7
                        CHANNELS 6 Xposition Yposition Zposition Zrotation Xrotation Yrotation
                        JOINT RightHandThumb3
                        {
                          OFFSET 0 -3 2.7
                          CHANNELS 6 Xposition Yposition Zposition Zrotation Xrotation Yrotation
                          End Site
                          {
                            OFFSET -1.70338e-05 -2.30001 1.8
                          }
                        }
                      }
                    }
                    JOINT RightHandIndex
                    {
                      OFFSET 0 -1.89999 1.59999
                      CHANNELS 6 Xposition Yposition Zposition Zrotation Xrotation Yrotation
                      JOINT RightHandIndex1
                      {
                        OFFSET 1.93123e-05 -8.3 1.89996
                        CHANNELS 6 Xposition Yposition Zposition Zrotation Xrotation Yrotation
                        JOINT RightHandIndex2
                        {
                          OFFSET -1.69712e-05 -4.5 0
                          CHANNELS 6 Xposition Yposition Zposition Zrotation Xrotation Yrotation
                          JOINT RightHandIndex3
                          {
                            OFFSET 0 -3.4 0
                            CHANNELS 6 Xposition Yposition Zposition Zrotation Xrotation Yrotation
                            End Site
                            {
                              OFFSET 1.6702e-05 -2.6 0
                            }
                          }
                        }
                      }
                    }
                    JOINT RightHandMiddle
                    {
                      OFFSET 0.249994 -2.2 0.399998
                      CHANNELS 6 Xposition Yposition Zposition Zrotation Xrotation Yrotation
                      JOINT RightHandMiddle1
                      {
                        OFFSET 0 -8.29999 0.999997
                        CHANNELS 6 Xposition Yposition Zposition Zrotation Xrotation Yrotation
                        JOINT RightHandMiddle2
                        {
                          OFFSET 1.11605e-05 -4.64999 0
                          CHANNELS 6 Xposition Yposition Zposition Zrotation Xrotation Yrotation
                          JOINT RightHandMiddle3
                          {
                            OFFSET -2.09539e-05 -3.30002 1.83518e-05
                            CHANNELS 6 Xposition Yposition Zposition Zrotation Xrotation Yrotation
                            End Site
                            {
                              OFFSET 0 -2.69999 0
                            }
                          }
                        }
                      }
                    }
                    JOINT RightHandRing
                    {
                      OFFSET 0.499998 -2.15 -0.799993
                      CHANNELS 6 Xposition Yposition Zposition Zrotation Xrotation Yrotation
                      JOINT RightHandRing1
                      {
                        OFFSET 0 -7.75001 -0.200007
                        CHANNELS 6 Xposition Yposition Zposition Zrotation Xrotation Yrotation
                        JOINT RightHandRing2
                        {
                          OFFSET 0 -3.79998 0
                          CHANNELS 6 Xposition Yposition Zposition Zrotation Xrotation Yrotation
                          JOINT RightHandRing3
                          {
                            OFFSET 0 -3.40002 0
                            CHANNELS 6 Xposition Yposition Zposition Zrotation Xrotation Yrotation
                            End Site
                            {
                              OFFSET 0 -2.59998 0
                            }
                          }
                        }
                      }
                    }
                    JOINT RightHandPinky
                    {
                      OFFSET 0.750001 -1.74999 -1.85
                      CHANNELS 6 Xposition Yposition Zposition Zrotation Xrotation Yrotation
                      JOINT RightHandPinky1
                      {
                        OFFSET 0 -7.15 -0.999998
                        CHANNELS 6 Xposition Yposition Zposition Zrotation Xrotation Yrotation
                        JOINT RightHandPinky2
                        {
                          OFFSET 0 -3.00001 0
                          CHANNELS 6 Xposition Yposition Zposition Zrotation Xrotation Yrotation
                          JOINT RightHandPinky3
                          {
                            OFFSET 0 -2.35 0
                            CHANNELS 6 Xposition Yposition Zposition Zrotation Xrotation Yrotation
                            End Site
                            {
                              OFFSET 1.93502e-05 -2.09995 -4.24521e-05
                            }
                          }
                        }
                      }
                    }
                  }
                }
              }
            }
          }
        }
      }
    }
  }
  JOINT LeftUpLeg
  {
    OFFSET 8 0 0
    CHANNELS 6 Xposition Yposition Zposition Zrotation Xrotation Yrotation
    JOINT LeftLeg
    {
      OFFSET 0 -45 -1.00002
      CHANNELS 6 Xposition Yposition Zposition Zrotation Xrotation Yrotation
      JOINT LeftFoot
      {
        OFFSET 0 -41 -2.00002
        CHANNELS 6 Xposition Yposition Zposition Zrotation Xrotation Yrotation
        JOINT LeftToeBase
        {
          OFFSET -1.02505e-05 -7.5 12.5
          CHANNELS 6 Xposition Yposition Zposition Zrotation Xrotation Yrotation
          JOINT LeftFootToe
          {
            OFFSET 0 0 4
            CHANNELS 6 Xposition Yposition Zposition Zrotation Xrotation Yrotation
            End Site
            {
              OFFSET 0 0 0
            }
          }
        }
      }
    }
  }
  JOINT RightUpLeg
  {
    OFFSET -8 0 0
    CHANNELS 6 Xposition Yposition Zposition Zrotation Xrotation Yrotation
    JOINT RightLeg
    {
      OFFSET -1.57048e-05 -45.0001 -1.00001
      CHANNELS 6 Xposition Yposition Zposition Zrotation Xrotation Yrotation
      JOINT RightFoot
      {
        OFFSET -1.08581e-05 -41 -1.99998
        CHANNELS 6 Xposition Yposition Zposition Zrotation Xrotation Yrotation
        JOINT RightToeBase
        {
          OFFSET 0 -7.50001 12.5
          CHANNELS 6 Xposition Yposition Zposition Zrotation Xrotation Yrotation
          JOINT RightFootToe
          {
            OFFSET 0 0 4
            CHANNELS 6 Xposition Yposition Zposition Zrotation Xrotation Yrotation
            End Site
            {
              OFFSET 0 0 0
            }
          }
        }
      }
    }
  }
}
MOTION
Frames:	3
Frame Time:	0.0111111
-187.079 68.8389 515.162 -13.0365 19.3469 -168.961 0 8 0 2.72519 18.9497 -14.1886 2.84217e-14 8 0 1.22084 8.57383 -5.6606 1.42109e-14 8 0 0.503688 4.31058 -2.80516 1.42109e-14 8 0 0.502248 4.29242 -2.79876 -1.42109e-14 17 1.13687e-13 1.7645 4.29235 -10.1203 -2.84217e-14 10.8 0 5.32354 9.45614 -24.1245 5 17 0 -0.750361 -0.858337 3.13889 6.45 -1.42109e-14 0 -0.963599 1.59276 -0.177587 6.45 -2.84217e-14 0 43.1968 -28.0611 -2.26877 -5.68434e-14 -32.4 -2 -12.4354 -58.4277 -12.5242 2.84217e-14 -25.65 2 18.5368 -8.93087 -33.7211 -0.5 -1.5 2.65 6.86603 -13.1626 5.13425 -1.42109e-14 -3.8 3.7 -0.0630555 30.6842 0.0346211 1.42109e-14 -3 2.7 -0.014102 -0.727528 0.0187136 1.42109e-14 -1.9 1.6 -0 0 9.93923e-16 -2.84217e-14 -8.3 1.9 -3.48282 2.41822 0.0764948 0 -4.5 0 -52.3672 -0.00800683 0.00240117 5.68434e-14 -3.4 2.84217e-14 -36.1563 -0.0062051 -0.00763523 -0.25 -2.2 0.4 -0 0 9.93923e-16 -2.13163e-14 -8.3 1 -4.12901 9.06223 0.431773 1.42109e-14 -4.65 0 -46.8213 -0.0572607 -0.0140973 0 -3.3 2.84217e-14 -32.3999 -0.0266792 -0.0284305 -0.5 -2.15 -0.8 -0 0 9.93923e-16 -1.42109e-14 -7.75 -0.2 -40.434 10.0314 5.19943 0 -3.8 -2.84217e-14 -27.0947 -0.1272 -0.0272227 0 -3.4 2.84217e-14 -20.2755 -0.0676637 -0.042316 -0.75 -1.75 -1.85 -0 0 9.93923e-16 7.10543e-15 -7.15 -1 -51.6539 21.0049 14.2073 5.68434e-14 -3 5.68434e-14 -30.9941 -0.127431 -0.081349 -5.68434e-14 -2.35 0 -22.6361 -0.0532585 -0.0724473 -5 17 0 12.8215 -3.44025 2.77851 -6.45 0 1.13687e-13 -2.48945 0.832211 -4.08337 -6.45 2.84217e-14 -1.13687e-13 -32.0823 -15.0103 -13.4565 5.68434e-14 -32.4 -2 -7.42681 -41.4894 -17.5581 0 -25.65 2 -30.9465 11.8136 -12.7694 0.5 -1.5 2.65 16.6518 -8.12726 7.19842 -5.68434e-14 -3.8 3.7 0.581547 19.6188 -0.254586 0 -3 2.7 0.129434 9.01905 0.0226973 0 -1.9 1.6 2.98177e-15 3.8266e-15 3.18055e-15 5.68434e-14 -8.3 1.9 1.85428 11.3855 -0.247061 0 -4.5 0 37.8775 0.0244334 -0.000985077 5.68434e-14 -3.4 0 26.8038 0.0128943 -0.00659301 0.25 -2.2 0.4 2.98177e-15 3.8266e-15 3.18055e-15 0 -8.3 1 20.5006 11.1559 -2.58367 5.68434e-14 -4.65 0 77.4436 -0.00316369 0.00404693 5.68434e-14 -3.3 5.68434e-14 61.7806 0.00304947 0.00584298 0.5 -2.15 -0.8 2.98177e-15 3.8266e-15 3.18055e-15 -5.68434e-14 -7.75 -0.2 37.3223 4.2195 -3.02838 -5.68434e-14 -3.8 0 18.2506 -0.0141577 0.0212749 -2.84217e-14 -3.4 0 14.7186 -0.00534161 0.0162145 0.75 -1.75 -1.85 2.98177e-15 3.8266e-15 3.18055e-15 5.68434e-14 -7.15 -1 63.8716 0.0297991 -5.14183 2.84217e-14 -3 0 34.3557 -0.00223743 -0.0157972 -2.84217e-14 -2.35 5.68434e-14 24.6927 0.000834124 -0.00812473 8 2.84217e-14 0 9.03825 -56.8024 13.4134 0 -45 -1 0.289896 52.0873 -0.930216 0 -41 -2 -0.700085 7.47721 8.12473 0 -7.5 12.5 -9.2906e-08 1.26075e-06 3.39391e-07 0 -1.42109e-14 4 0.0112607 0.131074 4.05801 -8 0 0 -1.57218 -46.5681 1.11289 -5.68434e-14 -45 -1 -29.0289 82.4724 33.7338 0 -41 -2 -9.40014 1.69623 16.0579 0 -7.5 12.5 1.80454e-07 -17.364 1.28069e-06 -5.68434e-14 -2.22045e-16 4 -1.80979 18.187 17.3488 
-187.195 68.8714 515.121 -12.9034 19.2098 -169.079 0 8 5.68434e-14 2.83559 18.8521 -14.3193 -2.84217e-14 8 0 1.23885 8.56121 -5.59094 1.42109e-14 8 0 0.514142 4.30422 -2.77002 0 8 1.13687e-13 0.511999 4.2868 -2.75974 -2.84217e-14 17 0 1.72791 4.29027 -10.1177 0 10.8 0 5.23728 9.46187 -24.1141 5 17 0 -0.820086 -0.838037 3.10959 6.45 0 0 -0.959864 1.59358 -0.132104 6.45 -4.26326e-14 0 42.9614 -28.026 -2.14489 0 -32.4 -2 -12.206 -58.0641 -12.2735 2.84217e-14 -25.65 2 19.0558 -8.91222 -33.0533 -0.5 -1.5 2.65 6.22049 -12.8629 4.98682 -1.42109e-14 -3.8 3.7 -0.0626771 29.2931 0.0544744 4.26326e-14 -3 2.7 -0.0141021 -0.727411 0.0187136 0 -1.9 1.6 1.65521e-32 -2.38542e-15 3.97569e-16 -4.9738e-14 -8.3 1.9 -3.28919 1.98393 0.0575493 0 -4.5 0 -52.5742 -0.00489579 0.00255492 -5.68434e-14 -3.4 -2.84217e-14 -36.302 -0.0058605 -0.00763523 -0.25 -2.2 0.4 1.65521e-32 -2.38542e-15 3.97569e-16 -2.84217e-14 -8.3 1 -3.77077 8.9982 0.392819 4.26326e-14 -4.65 2.84217e-14 -47.5419 -0.0614938 -0.0187761 0 -3.3 0 -32.8753 -0.0274079 -0.0326922 -0.5 -2.15 -0.8 1.65521e-32 -2.38542e-15 3.97569e-16 -7.10543e-15 -7.75 -0.2 -39.9747 10.3432 5.25429 5.68434e-14 -3.8 0 -29.2179 -0.115936 -0.030766 5.68434e-14 -3.4 0 -21.6071 -0.058541 -0.0430403 -0.75 -1.75 -1.85 1.65521e-32 -2.38542e-15 3.97569e-16 7.10543e-15 -7.15 -1 -52.193 20.9449 14.3777 0 -3 5.68434e-14 -33.762 -0.0765375 -0.102974 -5.68434e-14 -2.35 0 -24.352 -0.0164742 -0.0753042 -5 17 0 12.78 -3.42398 2.82534 -6.45 0 1.13687e-13 -2.49105 0.834716 -4.07636 -6.45 4.26326e-14 0 -32.0353 -15.2013 -12.6214 2.84217e-14 -32.4 -2 -8.39869 -40.3204 -17.6567 -5.68434e-14 -25.65 2 -31.1707 11.4152 -11.7418 0.5 -1.5 2.65 16.8411 -9.15302 7.53489 0 -3.8 3.7 0.535336 20.1751 -0.24575 0 -3 2.7 0.110751 7.98681 0.0235499 0 -1.9 1.6 2.28602e-15 -9.93923e-15 -0 0 -8.3 1.9 1.79665 11.1959 -0.233832 0 -4.5 0 38.8597 0.0843361 -0.0220173 5.68434e-14 -3.4 0 27.4256 0.0390608 -0.0375965 0.25 -2.2 0.4 2.28602e-15 -9.93923e-15 -0 5.68434e-14 -8.3 1 19.7887 10.4541 -2.33081 0 -4.65 0 77.2923 -0.0142996 0.0221635 2.84217e-14 -3.3 0 61.5841 0.0172107 0.0325264 0.5 -2.15 -0.8 2.28602e-15 -9.93923e-15 -0 -5.68434e-14 -7.75 -0.2 36.582 3.9128 -2.82129 0 -3.8 5.68434e-14 18.1198 0.00653719 0.00857691 0 -3.4 0 14.6291 0.00611325 0.00453749 0.75 -1.75 -1.85 2.28602e-15 -9.93923e-15 -0 -5.68434e-14 -7.15 -1 63.5033 -0.369549 -4.82949 0 -3 0 34.4246 -0.00932595 0.00876597 0 -2.35 0 24.7338 0.000834124 0.00710767 8 0 -5.68434e-14 8.79355 -56.06 13.4239 0 -45 -1 0.163818 51.2085 -0.646918 -5.68434e-14 -41 -2 -0.719529 7.54381 8.26432 5.68434e-14 -7.5 12.5 -9.2906e-08 1.26075e-06 3.39391e-07 0 1.42109e-14 4 -0.250788 0.146351 4.04351 -8 0 5.68434e-14 -1.50966 -46.6797 1.19711 -1.13687e-13 -45 -1 -28.9396 82.468 33.6344 0 -41 -2 -9.36224 1.66785 16.0898 5.68434e-14 -7.5 12.5 1.81255e-07 -17.3982 1.28093e-06 0 -2.22045e-16 4 -1.77587 18.2048 17.3342 
-187.304 68.902 515.081 -12.7758 19.0625 -169.171 0 8 5.68434e-14 2.94988 18.7528 -14.4477 0 8 0 1.25979 8.54463 -5.52663 2.84217e-14 8 0 0.526013 4.29591 -2.73752 -1.42109e-14 8 0 0.524588 4.27825 -2.73035 1.42109e-14 17 0 1.69201 4.2777 -10.1283 2.84217e-14 10.8 0 5.15093 9.44222 -24.1341 5 17 0 -0.869322 -0.818776 3.09858 6.45 0 -1.13687e-13 -0.953767 1.59415 -0.0939326 6.45 -2.84217e-14 0 42.715 -28.0568 -2.02812 -2.84217e-14 -32.4 -2 -11.9121 -57.5424 -11.9861 5.68434e-14 -25.65 2 19.3582 -9.15276 -32.239 -0.5 -1.5 2.65 5.16461 -12.4703 4.59889 0 -3.8 3.7 -0.0790505 27.677 0.0746741 4.26326e-14 -3 2.7 -0.0141025 -0.725997 0.0187136 -7.10543e-15 -1.9 1.6 4.55184e-32 -2.38542e-15 1.09332e-15 -2.84217e-14 -8.3 1.9 -2.91938 1.51606 0.0420327 1.42109e-14 -4.5 0 -52.5357 -0.00250012 0.00377414 -5.68434e-14 -3.4 -2.84217e-14 -36.2734 -0.00477475 -0.00763523 -0.25 -2.2 0.4 4.55184e-32 -2.38542e-15 1.09332e-15 -4.9738e-14 -8.3 1 -3.35888 8.94555 0.358282 2.84217e-14 -4.65 0 -48.1787 -0.0494032 -0.0197713 5.68434e-14 -3.3 0 -33.2947 -0.0202006 -0.0290121 -0.5 -2.15 -0.8 4.55184e-32 -2.38542e-15 1.09332e-15 -7.10543e-15 -7.75 -0.2 -39.9325 10.9052 5.47506 0 -3.8 0 -31.1964 -0.101239 -0.0253016 -5.68434e-14 -3.4 5.68434e-14 -22.8106 -0.0505633 -0.0375631 -0.75 -1.75 -1.85 4.55184e-32 -2.38542e-15 1.09332e-15 0 -7.15 -1 -53.3531 20.6418 14.6174 0 -3 0 -36.1138 -0.0281926 -0.0934365 -5.68434e-14 -2.35 0 -25.7805 0.00878449 -0.0585387 -5 17 0 12.7248 -3.3992 2.85459 -6.45 -1.42109e-14 1.13687e-13 -2.49303 0.834218 -4.06982 -6.45 0 0 -31.9757 -15.3847 -11.946 1.42109e-14 -32.4 -2 -9.25746 -39.2016 -17.5652 -2.84217e-14 -25.65 2 -31.5973 10.9231 -10.5152 0.5 -1.5 2.65 17.1318 -10.3026 8.02454 0 -3.8 3.7 0.499918 20.662 -0.232623 -5.68434e-14 -3 2.7 0.0951889 7.22557 0.0188226 0 -1.9 1.6 9.93923e-16 -7.10655e-15 -6.36111e-15 0 -8.3 1.9 1.73539 10.9632 -0.216909 0 -4.5 5.68434e-14 40.4004 0.219134 -0.0672141 1.13687e-13 -3.4 0 28.4209 0.0983332 -0.107867 0.25 -2.2 0.4 9.93923e-16 -7.10655e-15 -6.36111e-15 5.68434e-14 -8.3 1 19.1925 9.6349 -2.0788 -5.68434e-14 -4.65 -5.68434e-14 76.8338 -0.0402509 0.0606631 5.68434e-14 -3.3 0 60.9421 0.0449756 0.0923823 0.5 -2.15 -0.8 9.93923e-16 -7.10655e-15 -6.36111e-15 -5.68434e-14 -7.75 -0.2 35.8002 3.58208 -2.60816 0 -3.8 0 18.2067 0.0494294 -0.0146046 0 -3.4 -5.68434e-14 14.6847 0.0294083 -0.0177404 0.75 -1.75 -1.85 9.93923e-16 -7.10655e-15 -6.36111e-15 0 -7.15 -1 63.2214 -0.82916 -4.49967 0 -3 5.68434e-14 34.1318 -0.024739 0.0412734 0 -2.35 0 24.5592 0.000834124 0.0285805 8 0 5.68434e-14 8.5059 -55.2717 13.381 0 -45 -1 0.0417814 50.257 -0.367516 0 -41 -2 -0.747087 7.62713 8.44542 0 -7.5 12.5 -9.2906e-08 1.26075e-06 3.39391e-07 0 1.42109e-14 4 -0.520222 0.164086 4.02666 -8 2.84217e-14 -5.68434e-14 -1.47678 -46.801 1.25504 0 -45 -1 -28.8628 82.4634 33.5495 -5.68434e-14 -41 -2 -9.31277 1.6413 16.1232 0 -7.5 12.5 1.82318e-07 -17.4436 1.28125e-06 0 0 4 -1.75295 18.2629 17.3517 
